<svg class="hdt-icon hdt-icon-quote-flat hdt-icon--rtl" aria-hidden="true" focusable="false" width="23" height="23" viewBox="0 0 23 23" fill="none" xmlns="http://www.w3.org/2000/svg">
<path fill="currentColor" d="M12.25 23H11C10.4486 23 10 22.5414 10 21.9778C10 21.9634 13.5003 0.999069 13.5003 0.999069C13.5124 0.446047 13.9562 0 14.5 0H22C22.5514 0 23 0.458569 23 1.02222C23 1.0602 13.227 22.0851 13.227 22.0851C13.1568 22.2446 12.7952 23 12.25 23ZM2.25 23H1C0.4486 23 0 22.5414 0 21.9778C0 21.9634 3.50025 0.999069 3.50025 0.999069C3.51235 0.446047 3.9562 0 4.5 0H12C12.5514 0 13 0.458569 13 1.02222C13 1.0602 3.22695 22.0851 3.22695 22.0851C3.15675 22.2446 2.7952 23 2.25 23Z"/>
</svg>