<svg width="16" height="16" viewBox="0 0 16 16" aria-hidden="true" focusable="false" fill="none" xmlns="http://www.w3.org/2000/svg">
<path d="M8.00066 14.6667C8.87629 14.6677 9.74351 14.4958 10.5525 14.1607C11.3615 13.8256 12.0963 13.3339 12.7147 12.714C13.3346 12.0956 13.8263 11.3608 14.1614 10.5518C14.4965 9.74286 14.6684 8.87564 14.6673 8C14.6684 7.12436 14.4965 6.25714 14.1614 5.44816C13.8263 4.63918 13.3346 3.90439 12.7147 3.286C12.0963 2.66605 11.3615 2.17441 10.5525 1.83931C9.74351 1.5042 8.87629 1.33225 8.00066 1.33333C7.12502 1.33225 6.2578 1.5042 5.44882 1.83931C4.63984 2.17441 3.90505 2.66605 3.28666 3.286C2.66671 3.90439 2.17506 4.63918 1.83996 5.44816C1.50486 6.25714 1.33291 7.12436 1.33399 8C1.33291 8.87564 1.50486 9.74286 1.83996 10.5518C2.17506 11.3608 2.66671 12.0956 3.28666 12.714C3.90505 13.3339 4.63984 13.8256 5.44882 14.1607C6.2578 14.4958 7.12502 14.6677 8.00066 14.6667Z" fill="currentColor" stroke-width="2" stroke-linejoin="round"/>
<path d="M5.33398 8L7.33398 10L11.334 6" style="stroke: var(--color-background)" stroke-width="2" stroke-linecap="round" stroke-linejoin="round"/>
</svg>