<svg aria-hidden="true" focusable="false" width="14" height="14" viewBox="0 0 14 14" fill="none" xmlns="http://www.w3.org/2000/svg">
    <path d="M10.8182 0H3.18182C2.76398 0 2.35022 0.0823002 1.96419 0.242202C1.57815 0.402103 1.22739 0.636474 0.931933 0.931933C0.335226 1.52864 6.63272e-08 2.33795 6.63272e-08 3.18182V8.27273C-0.000149641 9.00623 0.253135 9.71726 0.716987 10.2855C1.18084 10.8537 1.82677 11.2442 2.54545 11.3909V12.7273C2.54493 12.9789 2.61901 13.225 2.75833 13.4346C2.89764 13.6441 3.09595 13.8077 3.32818 13.9045C3.48394 13.9673 3.65026 13.9997 3.81818 14C4.15519 13.9986 4.47787 13.8636 4.71545 13.6245L6.89182 11.4545H10.8182C11.236 11.4545 11.6498 11.3722 12.0358 11.2123C12.4218 11.0524 12.7726 10.8181 13.0681 10.5226C13.3635 10.2272 13.5979 9.87639 13.7578 9.49036C13.9177 9.10432 14 8.69057 14 8.27273V3.18182C14 2.76398 13.9177 2.35022 13.7578 1.96419C13.5979 1.57815 13.3635 1.22739 13.0681 0.931933C12.7726 0.636474 12.4218 0.402103 12.0358 0.242202C11.6498 0.0823002 11.236 0 10.8182 0ZM12.7273 8.27273C12.7273 8.77905 12.5261 9.26464 12.1681 9.62266C11.8101 9.98068 11.3245 10.1818 10.8182 10.1818H6.62455C6.4576 10.1825 6.29762 10.2488 6.17909 10.3664L3.81818 12.7273V10.8182C3.81818 10.6494 3.75114 10.4875 3.6318 10.3682C3.51245 10.2489 3.35059 10.1818 3.18182 10.1818C2.6755 10.1818 2.18991 9.98068 1.83189 9.62266C1.47386 9.26464 1.27273 8.77905 1.27273 8.27273V3.18182C1.27273 2.6755 1.47386 2.18991 1.83189 1.83189C2.18991 1.47386 2.6755 1.27273 3.18182 1.27273H10.8182C11.3245 1.27273 11.8101 1.47386 12.1681 1.83189C12.5261 2.18991 12.7273 2.6755 12.7273 3.18182V8.27273Z" fill="currentColor"/>
    <path d="M4.13636 6.68182C4.66354 6.68182 5.09091 6.25445 5.09091 5.72727C5.09091 5.20009 4.66354 4.77273 4.13636 4.77273C3.60918 4.77273 3.18182 5.20009 3.18182 5.72727C3.18182 6.25445 3.60918 6.68182 4.13636 6.68182Z" fill="currentColor"/>
    <path d="M7 6.68182C7.52718 6.68182 7.95455 6.25445 7.95455 5.72727C7.95455 5.20009 7.52718 4.77273 7 4.77273C6.47282 4.77273 6.04545 5.20009 6.04545 5.72727C6.04545 6.25445 6.47282 6.68182 7 6.68182Z" fill="currentColor"/>
    <path d="M9.86364 6.68182C10.3908 6.68182 10.8182 6.25445 10.8182 5.72727C10.8182 5.20009 10.3908 4.77273 9.86364 4.77273C9.33646 4.77273 8.90909 5.20009 8.90909 5.72727C8.90909 6.25445 9.33646 6.68182 9.86364 6.68182Z" fill="currentColor"/>
</svg>