<svg aria-hidden="true" focusable="false" width="18" height="18" viewBox="0 0 18 18" fill="none" xmlns="http://www.w3.org/2000/svg">
<path fill-rule="evenodd" clip-rule="evenodd" d="M13.1274 0H4.8726C4.15657 0.000152921 3.46993 0.284717 2.9637 0.7911L0.7911 2.9637C0.284717 3.46993 0.000152921 4.15657 0 4.8726V15.3C0 16.0161 0.284464 16.7028 0.790812 17.2092C1.29716 17.7155 1.98392 18 2.7 18H15.3C16.0161 18 16.7028 17.7155 17.2092 17.2092C17.7155 16.7028 18 16.0161 18 15.3V4.8726C17.9998 4.15657 17.7153 3.46993 17.2089 2.9637L15.0363 0.7911C14.5301 0.284717 13.8434 0.000152921 13.1274 0ZM15.3 3.6L13.7637 2.0637C13.595 1.89491 13.3661 1.80005 13.1274 1.8H4.8726C4.63392 1.80005 4.40504 1.89491 4.2363 2.0637L2.7 3.6H15.3ZM1.8 6.3V15.3C1.8 15.5387 1.89482 15.7676 2.0636 15.9364C2.23239 16.1052 2.46131 16.2 2.7 16.2H15.3C15.5387 16.2 15.7676 16.1052 15.9364 15.9364C16.1052 15.7676 16.2 15.5387 16.2 15.3V6.3C16.2 6.06131 16.1052 5.83239 15.9364 5.6636C15.7676 5.49482 15.5387 5.4 15.3 5.4H2.7C2.46131 5.4 2.23239 5.49482 2.0636 5.6636C1.89482 5.83239 1.8 6.06131 1.8 6.3ZM11.7 7.2C11.4613 7.2 11.2324 7.29482 11.0636 7.4636C10.8948 7.63239 10.8 7.8613 10.8 8.1V9.9C10.8 10.1387 10.8948 10.3676 11.0636 10.5364C11.2324 10.7052 11.4613 10.8 11.7 10.8H13.5C13.7387 10.8 13.9676 10.7052 14.1364 10.5364C14.3052 10.3676 14.4 10.1387 14.4 9.9V8.1C14.4 7.8613 14.3052 7.63239 14.1364 7.4636C13.9676 7.29482 13.7387 7.2 13.5 7.2H11.7ZM10.8 12.6C10.8 12.3613 10.8948 12.1324 11.0636 11.9636C11.2324 11.7948 11.4613 11.7 11.7 11.7H13.5C13.7387 11.7 13.9676 11.7948 14.1364 11.9636C14.3052 12.1324 14.4 12.3613 14.4 12.6C14.4 12.8387 14.3052 13.0676 14.1364 13.2364C13.9676 13.4052 13.7387 13.5 13.5 13.5H11.7C11.4613 13.5 11.2324 13.4052 11.0636 13.2364C10.8948 13.0676 10.8 12.8387 10.8 12.6Z" fill="currentColor"/>
</svg>