<svg width="16" height="17" viewBox="0 0 16 17" fill="none" xmlns="http://www.w3.org/2000/svg">
    <path d="M14.9722 14.7737L11.2744 10.8131C12.2255 9.65104 12.7468 8.17998 12.7461 6.66019C12.7461 3.0982 9.932 0.200195 6.47315 0.200195C3.0143 0.200195 0.200195 3.0982 0.200195 6.66019C0.200195 10.2222 3.0143 13.1202 6.47315 13.1202C7.77165 13.1202 9.00906 12.7169 10.067 11.9512L13.7929 15.9418C13.9486 16.1084 14.1581 16.2002 14.3825 16.2002C14.595 16.2002 14.7965 16.1168 14.9495 15.9651C15.1057 15.8101 15.1958 15.5976 15.2 15.3742C15.2043 15.1509 15.1223 14.9349 14.9722 14.7737ZM6.47315 1.88541C9.02979 1.88541 11.1097 4.02732 11.1097 6.66019C11.1097 9.29306 9.02979 11.435 6.47315 11.435C3.91651 11.435 1.83662 9.29306 1.83662 6.66019C1.83662 4.02732 3.91651 1.88541 6.47315 1.88541Z" fill="currentColor"/>
    <path d="M12.5459 6.66016C12.5459 3.20323 9.8163 0.400661 6.47363 0.400391C3.13075 0.400391 0.400408 3.20306 0.400391 6.66016C0.400391 10.1173 3.13074 12.9199 6.47363 12.9199C7.72946 12.9198 8.92617 12.5302 9.9502 11.7891L10.0928 11.6855L10.2129 11.8145L13.9395 15.8057C14.0581 15.9325 14.2148 16 14.3828 16C14.5417 15.9999 14.6927 15.9381 14.8086 15.8232C14.9273 15.7054 14.9967 15.5424 15 15.3701C15.0032 15.1981 14.9402 15.0327 14.8262 14.9102L11.1279 10.9492L11.0088 10.8223L11.1201 10.6865C12.0415 9.5607 12.5466 8.13426 12.5459 6.66016ZM10.9102 6.66016C10.9101 4.13235 8.91408 2.08523 6.47363 2.08496C4.03296 2.08496 2.03615 4.13218 2.03613 6.66016C2.03613 9.18815 4.03295 11.2354 6.47363 11.2354C8.91409 11.2351 10.9102 9.18798 10.9102 6.66016ZM11.3096 6.66016C11.3096 9.39774 9.146 11.6345 6.47363 11.6348C3.80104 11.6348 1.63672 9.3979 1.63672 6.66016C1.63674 3.92243 3.80105 1.68555 6.47363 1.68555C9.14599 1.68582 11.3096 3.92259 11.3096 6.66016ZM12.9404 6.95312C12.8809 8.35477 12.3889 9.70152 11.5371 10.8008L15.1182 14.6367C15.3042 14.8365 15.4056 15.1035 15.4004 15.3779C15.3952 15.6524 15.2845 15.9151 15.0908 16.1074C14.9009 16.2957 14.6486 16.4003 14.3828 16.4004C14.1019 16.4004 13.8393 16.2844 13.6465 16.0781L10.0381 12.2139C8.97904 12.9376 7.75546 13.3202 6.47363 13.3203C2.89883 13.3203 0 10.327 0 6.66016C1.73362e-05 2.99331 2.89884 0 6.47363 0C10.0482 0.000270403 12.9463 2.99348 12.9463 6.66016L12.9404 6.95312Z" fill="currentColor"/>
</svg>
